Coordinates
version=1
nRows=25
nColumns=33
inDegrees=yes

Units are S.I. units (second, meters, Newtons, ...)
Angles are in degrees.

endheader
time	ground_thorax_rot_x	ground_thorax_rot_y	ground_thorax_rot_z	ground_thorax_tx	ground_thorax_ty	ground_thorax_tz	clav_prot_r	clav_elev_r	scapula_abduction_r	scapula_elevation_r	scapula_upward_rot_r	scapula_winging_r	shoulder_elv_r	plane_of_elev_r	axial_rot_r	elbow_flexion_r	pro_sup_r	wrist_flex_r	wrist_dev_r	clav_prot_l	clav_elev_l	scapula_abduction_l	scapula_elevation_l	scapula_upward_rot_l	scapula_winging_l	shoulder_elv_l	plane_of_elev_l	axial_rot_l	elbow_flexion_l	pro_sup_l	wrist_flex_l	wrist_dev_l	
5.3500	-90.000000	90.000000	-90.000000	-213.104450	825.024419	11.247991	27.983494	40.585371	45.000000	45.000000	13.128702	3220.419391	-1699.789142	24.623017	-154.431453	744.584001	182.434548	9.921418	4.735622	-45.000000	2.463220	35.562337	-12.725319	-45.000000	-3852.961092	1195.079516	10.065045	-155.143293	1809.304295	15.427064	9.143920	-22.030408	
5.3600	-90.000000	90.000000	-90.000000	-209.640622	824.290163	11.451990	28.116138	40.563142	45.000000	45.000000	12.915354	3220.048071	-1699.848732	24.514203	-154.834365	744.434934	183.987488	9.774871	4.645302	-45.000000	2.331450	35.703478	-12.625452	-45.000000	-3852.809255	1194.900600	9.931118	-154.655081	1809.370023	14.723767	9.416687	-21.874418	
5.3700	-90.000000	90.000000	-90.000000	-205.994345	823.426746	11.654377	28.253768	40.546450	45.000000	45.000000	12.700132	3219.664360	-1699.903861	24.407706	-155.217773	744.286319	185.503134	9.626218	4.550001	-45.000000	2.219413	35.870421	-12.545146	-45.000000	-3852.660011	1194.701306	9.781611	-154.094696	1809.420822	14.039777	9.707966	-21.701607	
5.3800	-90.000000	90.000000	-90.000000	-202.173985	822.427195	11.852628	28.396670	40.534846	45.000000	45.000000	12.482996	3219.272050	-1699.953869	24.303257	-155.571301	744.140581	186.985646	9.475282	4.452900	-45.000000	2.131141	36.064898	-12.488312	-45.000000	-3852.513527	1194.480503	9.618568	-153.463516	1809.453228	13.386966	10.016609	-21.511791	
5.3900	-90.000000	90.000000	-90.000000	-198.187386	821.286218	12.043402	28.544980	40.526189	45.000000	45.000000	12.266484	3218.874383	-1699.999600	24.197785	-155.891807	743.990908	188.430257	9.323868	4.356455	-45.000000	2.068996	36.288000	-12.455195	-45.000000	-3852.367373	1194.240662	9.444174	-152.765571	1809.466460	12.783593	10.341362	-21.306570	
5.4000	-90.000000	90.000000	-90.000000	-194.042754	820.000674	12.223022	28.699152	40.519957	45.000000	45.000000	12.051570	3218.474947	-1700.041411	24.090582	-156.177672	743.839613	189.828883	9.172579	4.261290	-45.000000	2.035441	36.539413	-12.449151	-45.000000	-3852.222105	1193.979668	9.260629	-152.003299	1809.459349	12.249899	10.677714	-21.088405	
5.4100	-90.000000	90.000000	-90.000000	-189.749214	818.569668	12.387943	28.859466	40.515105	45.000000	45.000000	11.839810	3218.074376	-1700.079620	23.980014	-156.433632	743.679451	191.168697	9.024205	4.165848	-45.000000	2.033210	36.820900	-12.468302	-45.000000	-3852.075979	1193.702594	9.069709	-151.181368	1809.428724	11.808731	11.021771	-20.860558	
5.4200	-90.000000	90.000000	-90.000000	-185.318038	816.995384	12.535393	29.026730	40.512672	45.000000	45.000000	11.631167	3217.674515	-1700.113761	23.868143	-156.659352	743.513804	192.439126	8.880079	4.068669	-45.000000	2.064558	37.132532	-12.515897	-45.000000	-3851.931514	1193.407378	8.872247	-150.301203	1809.371029	11.480653	11.366354	-20.626986	
5.4300	-90.000000	90.000000	-90.000000	-180.762811	815.283364	12.663661	29.201057	40.513019	45.000000	45.000000	11.426743	3217.276006	-1700.143243	23.754927	-156.855964	743.339210	193.631338	8.743017	3.967514	-45.000000	2.130979	37.476502	-12.590735	-45.000000	-3851.790150	1193.098767	8.668727	-149.366893	1809.282837	11.285135	11.706574	-20.392191	
5.4400	-90.000000	90.000000	-90.000000	-176.099644	813.443153	12.772250	29.382877	40.518380	45.000000	45.000000	11.225986	3216.881967	-1700.165785	23.644411	-157.017551	743.165201	194.743856	8.613136	3.860890	-45.000000	2.232355	37.852339	-12.697679	-45.000000	-3851.656457	1192.771325	8.459862	-148.380890	1809.162200	11.236064	12.034418	-20.160960	
5.4500	-90.000000	90.000000	-90.000000	-171.346333	811.488203	12.861671	29.571384	40.528440	45.000000	45.000000	11.031054	3216.493439	-1700.180719	23.534544	-157.141684	742.986004	195.777044	8.492901	3.747635	-45.000000	2.366782	38.261163	-12.832443	-45.000000	-3851.530113	1192.432070	8.247176	-147.352148	1809.007289	11.345946	12.347035	-19.937866	
5.4600	-90.000000	90.000000	-90.000000	-166.521894	809.435882	12.933052	29.766073	40.544195	45.000000	45.000000	10.843277	3216.114821	-1700.186803	23.426741	-157.219237	742.808309	196.737009	8.381613	3.628427	-45.000000	2.530871	38.701621	-12.996889	-45.000000	-3851.412878	1192.078090	8.033535	-146.289260	1808.819741	11.621292	12.638821	-19.727571	
5.4700	-90.000000	90.000000	-90.000000	-161.645666	807.306764	12.987594	29.965275	40.564596	45.000000	45.000000	10.665666	3215.749064	-1700.184068	23.317559	-157.247568	742.627029	197.630765	8.279756	3.503420	-45.000000	2.720886	39.173242	-13.185478	-45.000000	-3851.302835	1191.717401	7.821295	-145.206186	1808.601697	12.064903	12.908922	-19.533770	
5.4800	-90.000000	90.000000	-90.000000	-156.737183	805.123949	13.026220	30.168830	40.590911	45.000000	45.000000	10.498818	3215.398438	-1700.171161	23.210446	-157.219103	742.446729	198.471572	8.184848	3.373970	-45.000000	2.938434	39.674392	-13.399434	-45.000000	-3851.200780	1191.348244	7.613475	-144.112870	1808.355114	12.672707	13.152059	-19.359503	
5.4900	-90.000000	90.000000	-90.000000	-151.815899	802.911741	13.049141	30.376266	40.623125	45.000000	45.000000	10.343364	3215.061440	-1700.148226	23.105067	-157.133252	742.260691	199.274653	8.095804	3.240993	-45.000000	3.184983	40.203370	-13.633996	-45.000000	-3851.104714	1190.976471	7.412585	-143.019940	1808.079482	13.436872	13.366724	-19.206102	
5.5000	-90.000000	90.000000	-90.000000	-146.901389	800.694441	13.055602	30.587843	40.662533	45.000000	45.000000	10.199599	3214.739031	-1700.114887	23.005097	-156.986688	742.070547	200.058995	8.009810	3.106659	-45.000000	3.462570	40.758245	-13.890124	-45.000000	-3851.016742	1190.602553	7.219344	-141.932618	1807.776985	14.343878	13.550101	-19.074669	
5.5100	-90.000000	90.000000	-90.000000	-142.013263	798.495021	13.043791	30.802284	40.708383	45.000000	45.000000	10.066909	3214.430820	-1700.071860	22.908193	-156.784731	741.875287	200.840901	7.924906	2.971936	-45.000000	3.768168	41.331943	-14.163376	-45.000000	-3850.933164	1190.226381	7.036145	-140.855196	1807.447506	15.376323	13.704332	-18.964047	
5.5200	-90.000000	90.000000	-90.000000	-137.172066	796.334697	13.011591	31.018929	40.760353	45.000000	45.000000	9.946195	3214.136781	-1700.019968	22.814431	-156.531275	741.673405	201.634992	7.839775	2.838742	-45.000000	4.099563	41.918445	-14.448556	-45.000000	-3850.851521	1189.850275	6.861583	-139.783369	1807.092093	16.514255	13.832247	-18.873148	
5.5300	-90.000000	90.000000	-90.000000	-132.400024	794.232815	12.957372	31.236662	40.817775	45.000000	45.000000	9.835344	3213.856186	-1699.959385	22.723512	-156.234750	741.467024	202.453114	7.752679	2.707803	-45.000000	4.452039	42.507646	-14.743397	-45.000000	-3850.765147	1189.467780	6.698210	-138.705167	1806.704730	17.737455	13.937297	-18.798415	
5.5400	-90.000000	90.000000	-90.000000	-127.722265	792.207532	12.881066	31.454178	40.879502	45.000000	45.000000	9.733905	3213.588339	-1699.891014	22.635235	-155.903744	741.254668	203.304196	7.663002	2.580179	-45.000000	4.822648	43.086559	-15.041647	-45.000000	-3850.665219	1189.077562	6.544337	-137.605133	1806.283287	19.026872	14.023209	-18.737158	
5.5500	-90.000000	90.000000	-90.000000	-123.166795	790.276236	12.784657	31.669041	40.943715	45.000000	45.000000	9.639015	3213.333032	-1699.815724	22.549948	-155.548652	741.039421	204.193064	7.569744	2.456386	-45.000000	5.203318	43.632608	-15.336880	-45.000000	-3850.533621	1188.668001	6.402502	-136.469329	1805.823819	20.362464	14.092837	-18.685150	
5.5600	-90.000000	90.000000	-90.000000	-118.764297	788.456118	12.672441	31.878832	41.007909	45.000000	45.000000	9.551684	3213.090272	-1699.734443	22.470482	-155.178396	740.820023	205.120855	7.473177	2.337482	-45.000000	5.586117	44.108988	-15.611777	-45.000000	-3850.333760	1188.233492	6.274027	-135.291672	1805.327120	21.724018	14.147584	-18.638794	
5.5700	-90.000000	90.000000	-90.000000	-114.546143	786.763864	12.550133	32.081526	41.070505	45.000000	45.000000	9.470705	3212.858290	-1699.648546	22.398788	-154.804608	740.596119	206.087287	7.373418	2.224050	-45.000000	5.964410	44.487363	-15.854271	-45.000000	-3850.038575	1187.765960	6.164296	-134.070382	1804.795948	23.091884	14.185250	-18.594503	
5.5800	-90.000000	90.000000	-90.000000	-110.542056	785.215136	12.423823	32.275818	41.131457	45.000000	45.000000	9.395916	3212.638161	-1699.559250	22.335035	-154.437014	740.369428	207.093890	7.270264	2.117954	-45.000000	6.327499	44.750567	-16.057921	-45.000000	-3849.639485	1187.264092	6.071577	-132.811662	1804.234927	24.451186	14.203272	-18.549625	
5.5900	-90.000000	90.000000	-90.000000	-106.777864	783.823904	12.299073	32.460025	41.190648	45.000000	45.000000	9.326598	3212.430701	-1699.469997	22.275911	-154.085668	740.140794	208.142531	7.164025	2.021801	-45.000000	6.666607	44.908388	-16.221966	-45.000000	-3849.153008	1186.734902	5.996195	-131.526038	1803.654216	25.789076	14.199384	-18.503066	
